<?xml version="1.0" encoding="utf-8"?>
<!-- Generator: Adobe Illustrator 23.0.6, SVG Export Plug-In . SVG Version: 6.00 Build 0)  -->
<svg version="1.1" id="Layer_1" xmlns="http://www.w3.org/2000/svg" xmlns:xlink="http://www.w3.org/1999/xlink" x="0px" y="0px"
	 viewBox="0 0 1422.6 636" style="enable-background:new 0 0 1422.6 636;" xml:space="preserve">
<style type="text/css">
	.st0{fill:none;}
	.st1{clip-path:url(#SVGID_2_);fill:#FFFFFF;}
	.st2{fill:#FFFFFF;}
	.st3{fill:none;stroke:#262626;stroke-width:0.5;stroke-linecap:square;stroke-linejoin:round;stroke-miterlimit:10;}
	.st4{fill:#262626;}
	.st5{font-family:'Helvetica-Light';}
	.st6{font-size:14px;}
	.st7{font-size:15.4px;}
	.st8{font-size:12.32px;}
	.st9{fill:none;stroke:#262626;stroke-width:0.5;stroke-linejoin:round;stroke-miterlimit:10;}
	.st10{fill:none;stroke:#0072BD;stroke-width:2;stroke-linejoin:round;stroke-miterlimit:10;}
	.st11{fill:#0072BD;}
	.st12{opacity:0.302;fill:#D95319;enable-background:new    ;}
	.st13{fill:none;stroke:#000000;stroke-width:0.5;stroke-miterlimit:10;}
</style>
<rect x="0.5" y="0.5" class="st0" width="1421.6" height="635"/>
<g>
	<g>
		<g>
			<defs>
				<rect id="SVGID_1_" x="300" y="0.5" width="837" height="635"/>
			</defs>
			<clipPath id="SVGID_2_">
				<use xlink:href="#SVGID_1_"  style="overflow:visible;"/>
			</clipPath>
			<rect x="300" y="0.5" class="st1" width="837" height="635"/>
		</g>
	</g>
</g>
<rect x="300" y="0.5" class="st2" width="837" height="635"/>
<rect x="409" y="48" class="st2" width="648.5" height="517.5"/>
<line class="st3" x1="409" y1="565.5" x2="1057.6" y2="565.5"/>
<line class="st3" x1="409" y1="48" x2="1057.6" y2="48"/>
<line class="st3" x1="409" y1="565.5" x2="409" y2="559"/>
<line class="st3" x1="501.7" y1="565.5" x2="501.7" y2="559"/>
<line class="st3" x1="594.3" y1="565.5" x2="594.3" y2="559"/>
<line class="st3" x1="687" y1="565.5" x2="687" y2="559"/>
<line class="st3" x1="779.6" y1="565.5" x2="779.6" y2="559"/>
<line class="st3" x1="872.3" y1="565.5" x2="872.3" y2="559"/>
<line class="st3" x1="964.9" y1="565.5" x2="964.9" y2="559"/>
<line class="st3" x1="1057.6" y1="565.5" x2="1057.6" y2="559"/>
<line class="st3" x1="409" y1="48" x2="409" y2="54.5"/>
<line class="st3" x1="501.7" y1="48" x2="501.7" y2="54.5"/>
<line class="st3" x1="594.3" y1="48" x2="594.3" y2="54.5"/>
<line class="st3" x1="687" y1="48" x2="687" y2="54.5"/>
<line class="st3" x1="779.6" y1="48" x2="779.6" y2="54.5"/>
<line class="st3" x1="872.3" y1="48" x2="872.3" y2="54.5"/>
<line class="st3" x1="964.9" y1="48" x2="964.9" y2="54.5"/>
<line class="st3" x1="1057.6" y1="48" x2="1057.6" y2="54.5"/>
<text transform="matrix(1 0 0 1 399.0525 584.3)" class="st4 st5 st6">0.8</text>
<text transform="matrix(1 0 0 1 487.6954 584.3)" class="st4 st5 st6">0.85</text>
<text transform="matrix(1 0 0 1 584.3382 584.3)" class="st4 st5 st6">0.9</text>
<text transform="matrix(1 0 0 1 672.9811 584.3)" class="st4 st5 st6">0.95</text>
<text transform="matrix(1 0 0 1 775.6239 584.3)" class="st4 st5 st6">1</text>
<text transform="matrix(1 0 0 1 858.2667 584.3)" class="st4 st5 st6">1.05</text>
<text transform="matrix(1 0 0 1 954.9097 584.3)" class="st4 st5 st6">1.1</text>
<text transform="matrix(1 0 0 1 1043.5524 584.3)" class="st4 st5 st6">1.15</text>
<text transform="matrix(1 0 0 1 691.0525 606.5)" class="st4 st5 st7">volume (m</text>
<text transform="matrix(1 0 0 1 763.0525 599.5)" class="st4 st5 st8">3</text>
<text transform="matrix(1 0 0 1 770.0525 606.5)" class="st4 st5 st7">)</text>
<line class="st3" x1="409" y1="565.5" x2="409" y2="48"/>
<line class="st3" x1="1057.6" y1="565.5" x2="1057.6" y2="48"/>
<line class="st3" x1="409" y1="565.5" x2="415.5" y2="565.5"/>
<line class="st3" x1="409" y1="518.5" x2="415.5" y2="518.5"/>
<line class="st3" x1="409" y1="471.4" x2="415.5" y2="471.4"/>
<line class="st3" x1="409" y1="424.4" x2="415.5" y2="424.4"/>
<line class="st3" x1="409" y1="377.3" x2="415.5" y2="377.3"/>
<line class="st3" x1="409" y1="330.3" x2="415.5" y2="330.3"/>
<line class="st3" x1="409" y1="283.2" x2="415.5" y2="283.2"/>
<line class="st3" x1="409" y1="236.2" x2="415.5" y2="236.2"/>
<line class="st3" x1="409" y1="189.1" x2="415.5" y2="189.1"/>
<line class="st3" x1="409" y1="142.1" x2="415.5" y2="142.1"/>
<line class="st3" x1="409" y1="95.1" x2="415.5" y2="95.1"/>
<line class="st3" x1="409" y1="48" x2="415.5" y2="48"/>
<line class="st3" x1="1057.6" y1="565.5" x2="1051.1" y2="565.5"/>
<line class="st3" x1="1057.6" y1="518.5" x2="1051.1" y2="518.5"/>
<line class="st3" x1="1057.6" y1="471.4" x2="1051.1" y2="471.4"/>
<line class="st3" x1="1057.6" y1="424.4" x2="1051.1" y2="424.4"/>
<line class="st3" x1="1057.6" y1="377.3" x2="1051.1" y2="377.3"/>
<line class="st3" x1="1057.6" y1="330.3" x2="1051.1" y2="330.3"/>
<line class="st3" x1="1057.6" y1="283.2" x2="1051.1" y2="283.2"/>
<line class="st3" x1="1057.6" y1="236.2" x2="1051.1" y2="236.2"/>
<line class="st3" x1="1057.6" y1="189.1" x2="1051.1" y2="189.1"/>
<line class="st3" x1="1057.6" y1="142.1" x2="1051.1" y2="142.1"/>
<line class="st3" x1="1057.6" y1="95.1" x2="1051.1" y2="95.1"/>
<line class="st3" x1="1057.6" y1="48" x2="1051.1" y2="48"/>
<text transform="matrix(1 0 0 1 396.2525 571)" class="st4 st5 st6">0</text>
<text transform="matrix(1 0 0 1 380.2525 523.9545)" class="st4 st5 st6">100</text>
<text transform="matrix(1 0 0 1 380.2525 476.9091)" class="st4 st5 st6">200</text>
<text transform="matrix(1 0 0 1 380.2525 429.8636)" class="st4 st5 st6">300</text>
<text transform="matrix(1 0 0 1 380.2525 382.8182)" class="st4 st5 st6">400</text>
<text transform="matrix(1 0 0 1 380.2525 335.7727)" class="st4 st5 st6">500</text>
<text transform="matrix(1 0 0 1 380.2525 288.7272)" class="st4 st5 st6">600</text>
<text transform="matrix(1 0 0 1 380.2525 241.6818)" class="st4 st5 st6">700</text>
<text transform="matrix(1 0 0 1 380.2525 194.6364)" class="st4 st5 st6">800</text>
<text transform="matrix(1 0 0 1 380.2525 147.5909)" class="st4 st5 st6">900</text>
<text transform="matrix(1 0 0 1 372.2525 100.5454)" class="st4 st5 st6">1000</text>
<text transform="matrix(1 0 0 1 372.2525 53.5)" class="st4 st5 st6">1100</text>
<text transform="matrix(0 -1 1 0 365.7529 356.2496)" class="st4 st5 st7">p</text>
<text transform="matrix(0 -1 1 0 365.7529 347.6696)" class="st4 st5 st7">ressure (h</text>
<text transform="matrix(0 -1 1 0 365.7529 278.36)" class="st4 st5 st7">P</text>
<text transform="matrix(0 -1 1 0 365.7529 268.1002)" class="st4 st5 st7">a)</text>
<line class="st9" x1="409" y1="565.5" x2="1057.6" y2="565.5"/>
<polyline class="st10" points="504.4,95.1 563.2,118.6 627.3,142.1 697.6,165.6 774.9,189.1 860.7,212.7 956.3,236.2 "/>
<path class="st11" d="M504.4,91.1c-2.2,0-4,1.8-4,4s1.8,4,4,4s4-1.8,4-4C508.4,92.8,506.6,91.1,504.4,91.1z M504.4,93.1
	c1.1,0,2,0.9,2,2s-0.9,2-2,2s-2-0.9-2-2C502.4,93.9,503.3,93.1,504.4,93.1z"/>
<path class="st11" d="M563.2,114.6c-2.2,0-4,1.8-4,4s1.8,4,4,4s4-1.8,4-4S565.4,114.6,563.2,114.6z M563.2,116.6c1.1,0,2,0.9,2,2
	s-0.9,2-2,2s-2-0.9-2-2C561.2,117.5,562.1,116.6,563.2,116.6z"/>
<path class="st11" d="M627.3,138.1c-2.2,0-4,1.8-4,4s1.8,4,4,4s4-1.8,4-4C631.3,139.9,629.5,138.1,627.3,138.1z M627.3,140.1
	c1.1,0,2,0.9,2,2s-0.9,2-2,2s-2-0.9-2-2C625.3,141,626.2,140.1,627.3,140.1z"/>
<path class="st11" d="M697.6,161.6c-2.2,0-4,1.8-4,4s1.8,4,4,4s4-1.8,4-4S699.8,161.6,697.6,161.6z M697.6,163.6c1.1,0,2,0.9,2,2
	s-0.9,2-2,2s-2-0.9-2-2S696.5,163.6,697.6,163.6z"/>
<path class="st11" d="M774.9,185.1c-2.2,0-4,1.8-4,4s1.8,4,4,4s4-1.8,4-4S777.2,185.1,774.9,185.1z M774.9,187.1c1.1,0,2,0.9,2,2
	s-0.9,2-2,2s-2-0.9-2-2C772.9,188,773.8,187.1,774.9,187.1z"/>
<path class="st11" d="M860.7,208.7c-2.2,0-4,1.8-4,4s1.8,4,4,4s4-1.8,4-4S862.9,208.7,860.7,208.7z M860.7,210.7c1.1,0,2,0.9,2,2
	s-0.9,2-2,2s-2-0.9-2-2C858.7,211.6,859.6,210.7,860.7,210.7z"/>
<path class="st11" d="M956.3,232.2c-2.2,0-4,1.8-4,4s1.8,4,4,4s4-1.8,4-4C960.3,234,958.5,232.2,956.3,232.2z M956.3,234.2
	c1.1,0,2,0.9,2,2s-0.9,2-2,2s-2-0.9-2-2C954.3,235.1,955.2,234.2,956.3,234.2z"/>
<path class="st12" d="M956.3,565.5V224.4h-95.6v341.1H956.3z M860.7,565.5V200.9h-85v364.6H860.7z M774.9,565.5V177.4h-77.4v388.1
	H774.9z M697.6,565.5V153.9H626v411.6H697.6z M626,565.5V130.3h-61.5v435.2H626z M564.5,565.5V106.8h-61.5v458.7H564.5z"/>
<rect x="503.1" y="106.8" class="st13" width="61.5" height="458.7"/>
<rect x="564.5" y="130.3" class="st13" width="61.5" height="435.2"/>
<rect x="626" y="153.9" class="st13" width="71.6" height="411.6"/>
<rect x="697.6" y="177.4" class="st13" width="77.4" height="388.1"/>
<rect x="774.9" y="200.9" class="st13" width="85.7" height="364.6"/>
<rect x="860.7" y="224.4" class="st13" width="95.6" height="341.1"/>
</svg>
