<?xml version="1.0" encoding="utf-8"?>
<!-- Generator: Adobe Illustrator 23.0.6, SVG Export Plug-In . SVG Version: 6.00 Build 0)  -->
<svg version="1.1" id="Layer_1" xmlns="http://www.w3.org/2000/svg" xmlns:xlink="http://www.w3.org/1999/xlink" x="0px" y="0px"
	 viewBox="0 0 837 635" style="enable-background:new 0 0 837 635;" xml:space="preserve">
<style type="text/css">
	.st0{clip-path:url(#SVGID_2_);fill:#FFFFFF;}
	.st1{fill:#FFFFFF;}
	.st2{fill:none;stroke:#262626;stroke-width:0.5;stroke-linecap:square;stroke-linejoin:round;stroke-miterlimit:10;}
	.st3{fill:#262626;}
	.st4{font-family:'Helvetica-Light';}
	.st5{font-size:14px;}
	.st6{font-size:15.4px;}
	.st7{font-size:12.32px;}
	.st8{fill:none;stroke:#262626;stroke-width:0.5;stroke-linejoin:round;stroke-miterlimit:10;}
	.st9{fill:none;stroke:#0072BD;stroke-width:2;stroke-linejoin:round;stroke-miterlimit:10;}
	.st10{fill:#0072BD;}
	.st11{opacity:0.302;fill:#D95319;}
	.st12{fill:none;stroke:#000000;stroke-width:0.5;stroke-miterlimit:10;}
</style>
<g>
	<defs>
		<rect id="SVGID_1_" width="837" height="635"/>
	</defs>
	<clipPath id="SVGID_2_">
		<use xlink:href="#SVGID_1_"  style="overflow:visible;"/>
	</clipPath>
	<rect class="st0" width="837" height="635"/>
</g>
<rect class="st1" width="837" height="635"/>
<rect x="109" y="47.5" class="st1" width="648.5" height="517.5"/>
<line class="st2" x1="109" y1="565" x2="757.5" y2="565"/>
<line class="st2" x1="109" y1="47.5" x2="757.5" y2="47.5"/>
<line class="st2" x1="109" y1="565" x2="109" y2="558.52"/>
<line class="st2" x1="201.64" y1="565" x2="201.64" y2="558.52"/>
<line class="st2" x1="294.29" y1="565" x2="294.29" y2="558.52"/>
<line class="st2" x1="386.93" y1="565" x2="386.93" y2="558.52"/>
<line class="st2" x1="479.57" y1="565" x2="479.57" y2="558.52"/>
<line class="st2" x1="572.21" y1="565" x2="572.21" y2="558.52"/>
<line class="st2" x1="664.86" y1="565" x2="664.86" y2="558.52"/>
<line class="st2" x1="757.5" y1="565" x2="757.5" y2="558.52"/>
<line class="st2" x1="109" y1="47.5" x2="109" y2="53.99"/>
<line class="st2" x1="201.64" y1="47.5" x2="201.64" y2="53.99"/>
<line class="st2" x1="294.29" y1="47.5" x2="294.29" y2="53.99"/>
<line class="st2" x1="386.93" y1="47.5" x2="386.93" y2="53.99"/>
<line class="st2" x1="479.57" y1="47.5" x2="479.57" y2="53.99"/>
<line class="st2" x1="572.21" y1="47.5" x2="572.21" y2="53.99"/>
<line class="st2" x1="664.86" y1="47.5" x2="664.86" y2="53.99"/>
<line class="st2" x1="757.5" y1="47.5" x2="757.5" y2="53.99"/>
<text transform="matrix(1 0 0 1 99 583.8)" class="st3 st4 st5">0.8</text>
<text transform="matrix(1 0 0 1 187.6429 583.8)" class="st3 st4 st5">0.85</text>
<text transform="matrix(1 0 0 1 284.2857 583.8)" class="st3 st4 st5">0.9</text>
<text transform="matrix(1 0 0 1 372.9286 583.8)" class="st3 st4 st5">0.95</text>
<text transform="matrix(1 0 0 1 475.5714 583.8)" class="st3 st4 st5">1</text>
<text transform="matrix(1 0 0 1 558.2142 583.8)" class="st3 st4 st5">1.05</text>
<text transform="matrix(1 0 0 1 654.8572 583.8)" class="st3 st4 st5">1.1</text>
<text transform="matrix(1 0 0 1 743.4999 583.8)" class="st3 st4 st5">1.15</text>
<text transform="matrix(1 0 0 1 391 606)" class="st3 st4 st6">volume (m</text>
<text transform="matrix(1 0 0 1 463 599)" class="st3 st4 st7">3</text>
<text transform="matrix(1 0 0 1 470 606)" class="st3 st4 st6">)</text>
<line class="st2" x1="109" y1="565" x2="109" y2="47.5"/>
<line class="st2" x1="757.5" y1="565" x2="757.5" y2="47.5"/>
<line class="st2" x1="109" y1="565" x2="115.48" y2="565"/>
<line class="st2" x1="109" y1="517.95" x2="115.48" y2="517.95"/>
<line class="st2" x1="109" y1="470.91" x2="115.48" y2="470.91"/>
<line class="st2" x1="109" y1="423.86" x2="115.48" y2="423.86"/>
<line class="st2" x1="109" y1="376.82" x2="115.48" y2="376.82"/>
<line class="st2" x1="109" y1="329.77" x2="115.48" y2="329.77"/>
<line class="st2" x1="109" y1="282.73" x2="115.48" y2="282.73"/>
<line class="st2" x1="109" y1="235.68" x2="115.48" y2="235.68"/>
<line class="st2" x1="109" y1="188.64" x2="115.48" y2="188.64"/>
<line class="st2" x1="109" y1="141.59" x2="115.48" y2="141.59"/>
<line class="st2" x1="109" y1="94.55" x2="115.48" y2="94.55"/>
<line class="st2" x1="109" y1="47.5" x2="115.48" y2="47.5"/>
<line class="st2" x1="757.5" y1="565" x2="751.01" y2="565"/>
<line class="st2" x1="757.5" y1="517.95" x2="751.01" y2="517.95"/>
<line class="st2" x1="757.5" y1="470.91" x2="751.01" y2="470.91"/>
<line class="st2" x1="757.5" y1="423.86" x2="751.01" y2="423.86"/>
<line class="st2" x1="757.5" y1="376.82" x2="751.01" y2="376.82"/>
<line class="st2" x1="757.5" y1="329.77" x2="751.01" y2="329.77"/>
<line class="st2" x1="757.5" y1="282.73" x2="751.01" y2="282.73"/>
<line class="st2" x1="757.5" y1="235.68" x2="751.01" y2="235.68"/>
<line class="st2" x1="757.5" y1="188.64" x2="751.01" y2="188.64"/>
<line class="st2" x1="757.5" y1="141.59" x2="751.01" y2="141.59"/>
<line class="st2" x1="757.5" y1="94.55" x2="751.01" y2="94.55"/>
<line class="st2" x1="757.5" y1="47.5" x2="751.01" y2="47.5"/>
<text transform="matrix(1 0 0 1 96.2 570.5)" class="st3 st4 st5">0</text>
<text transform="matrix(1 0 0 1 80.2 523.4545)" class="st3 st4 st5">100</text>
<text transform="matrix(1 0 0 1 80.2 476.4091)" class="st3 st4 st5">200</text>
<text transform="matrix(1 0 0 1 80.2 429.3636)" class="st3 st4 st5">300</text>
<text transform="matrix(1 0 0 1 80.2 382.3182)" class="st3 st4 st5">400</text>
<text transform="matrix(1 0 0 1 80.2 335.2727)" class="st3 st4 st5">500</text>
<text transform="matrix(1 0 0 1 80.2 288.2272)" class="st3 st4 st5">600</text>
<text transform="matrix(1 0 0 1 80.2 241.1818)" class="st3 st4 st5">700</text>
<text transform="matrix(1 0 0 1 80.2 194.1364)" class="st3 st4 st5">800</text>
<text transform="matrix(1 0 0 1 80.2 147.0909)" class="st3 st4 st5">900</text>
<text transform="matrix(1 0 0 1 72.2 100.0454)" class="st3 st4 st5">1000</text>
<text transform="matrix(1 0 0 1 72.2 53)" class="st3 st4 st5">1100</text>
<text transform="matrix(0 -1 1 0 65.7004 355.75)"><tspan x="0" y="0" class="st3 st4 st6">p</tspan><tspan x="8.58" y="0" class="st3 st4 st6">ressure (h</tspan><tspan x="77.89" y="0" class="st3 st4 st6">P</tspan><tspan x="88.15" y="0" class="st3 st4 st6">a)</tspan></text>
<line class="st8" x1="109" y1="565" x2="757.5" y2="565"/>
<polyline class="st9" points="204.37,94.55 263.11,118.07 327.27,141.59 397.53,165.11 474.89,188.64 560.62,212.16 656.26,235.68 
	"/>
<path class="st10" d="M204.37,90.55c-2.21,0-4,1.79-4,4c0,2.21,1.79,4,4,4c2.21,0,4-1.79,4-4
	C208.37,92.34,206.58,90.55,204.37,90.55z M204.37,92.55c1.1,0,2,0.9,2,2c0,1.1-0.9,2-2,2s-2-0.9-2-2
	C202.37,93.44,203.26,92.55,204.37,92.55z"/>
<path class="st10" d="M263.11,114.07c-2.21,0-4,1.79-4,4c0,2.21,1.79,4,4,4c2.21,0,4-1.79,4-4
	C267.11,115.86,265.32,114.07,263.11,114.07z M263.11,116.07c1.1,0,2,0.9,2,2c0,1.1-0.9,2-2,2c-1.1,0-2-0.9-2-2
	C261.11,116.96,262.01,116.07,263.11,116.07z"/>
<path class="st10" d="M327.27,137.59c-2.21,0-4,1.79-4,4c0,2.21,1.79,4,4,4s4-1.79,4-4C331.27,139.38,329.48,137.59,327.27,137.59z
	 M327.27,139.59c1.1,0,2,0.9,2,2c0,1.1-0.9,2-2,2s-2-0.9-2-2C325.27,140.49,326.16,139.59,327.27,139.59z"/>
<path class="st10" d="M397.53,161.11c-2.21,0-4,1.79-4,4c0,2.21,1.79,4,4,4c2.21,0,4-1.79,4-4
	C401.53,162.9,399.74,161.11,397.53,161.11z M397.53,163.11c1.1,0,2,0.9,2,2c0,1.1-0.9,2-2,2c-1.1,0-2-0.9-2-2
	C395.53,164.01,396.43,163.11,397.53,163.11z"/>
<path class="st10" d="M474.89,184.64c-2.21,0-4,1.79-4,4c0,2.21,1.79,4,4,4c2.21,0,4-1.79,4-4
	C478.89,186.43,477.1,184.64,474.89,184.64z M474.89,186.64c1.1,0,2,0.9,2,2c0,1.1-0.9,2-2,2c-1.1,0-2-0.9-2-2
	C472.89,187.53,473.78,186.64,474.89,186.64z"/>
<path class="st10" d="M560.62,208.16c-2.21,0-4,1.79-4,4c0,2.21,1.79,4,4,4c2.21,0,4-1.79,4-4
	C564.62,209.95,562.83,208.16,560.62,208.16z M560.62,210.16c1.1,0,2,0.9,2,2c0,1.1-0.9,2-2,2c-1.1,0-2-0.9-2-2
	C558.62,211.05,559.52,210.16,560.62,210.16z"/>
<path class="st10" d="M656.26,231.68c-2.21,0-4,1.79-4,4c0,2.21,1.79,4,4,4c2.21,0,4-1.79,4-4
	C660.26,233.47,658.47,231.68,656.26,231.68z M656.26,233.68c1.1,0,2,0.9,2,2c0,1.1-0.9,2-2,2c-1.1,0-2-0.9-2-2
	C654.26,234.58,655.15,233.68,656.26,233.68z"/>
<path class="st11" d="M656.26,565V223.92h-95.64V565H656.26z M560.62,565V200.4h-85.05V565H560.62z M474.89,565V176.88h-77.36V565
	H474.89z M397.53,565V153.35h-71.62V565H397.53z M325.92,565V129.83h-61.45V565H325.92z M264.47,565V106.31h-61.45V565H264.47z"/>
<rect x="203.02" y="106.31" class="st12" width="61.45" height="458.69"/>
<rect x="264.47" y="129.83" class="st12" width="61.45" height="435.17"/>
<rect x="325.92" y="153.35" class="st12" width="71.62" height="411.65"/>
<rect x="397.53" y="176.88" class="st12" width="77.36" height="388.12"/>
<rect x="474.89" y="200.4" class="st12" width="85.73" height="364.6"/>
<rect x="560.62" y="223.92" class="st12" width="95.64" height="341.08"/>
</svg>
