<?xml version="1.0" encoding="utf-8"?>
<!-- Generator: Adobe Illustrator 23.0.6, SVG Export Plug-In . SVG Version: 6.00 Build 0)  -->
<svg version="1.1" id="Layer_1" xmlns="http://www.w3.org/2000/svg" xmlns:xlink="http://www.w3.org/1999/xlink" x="0px" y="0px"
	 viewBox="0 0 1422.59 636" style="enable-background:new 0 0 1422.59 636;" xml:space="preserve">
<style type="text/css">
	.st0{fill:#FFFFFF;stroke:#000000;stroke-miterlimit:10;}
	.st1{clip-path:url(#SVGID_2_);fill:#FFFFFF;}
	.st2{fill:#FFFFFF;}
	.st3{fill:none;stroke:#262626;stroke-width:0.5;stroke-linecap:square;stroke-linejoin:round;stroke-miterlimit:10;}
	.st4{fill:#262626;}
	.st5{font-family:'Helvetica-Light';}
	.st6{font-size:14px;}
	.st7{font-size:15.4px;}
	.st8{font-size:12.32px;}
	.st9{fill:none;stroke:#262626;stroke-width:0.5;stroke-linejoin:round;stroke-miterlimit:10;}
	.st10{fill:none;stroke:#0072BD;stroke-width:2;stroke-linejoin:round;stroke-miterlimit:10;}
	.st11{fill:#0072BD;}
	.st12{opacity:0.302;fill:#D95319;enable-background:new    ;}
	.st13{fill:none;stroke:#000000;stroke-width:0.5;stroke-miterlimit:10;}
</style>
<rect x="0.5" y="0.5" class="st0" width="1421.59" height="635"/>
<g>
	<g>
		<defs>
			<rect id="SVGID_1_" x="300.05" y="0.5" width="837" height="635"/>
		</defs>
		<clipPath id="SVGID_2_">
			<use xlink:href="#SVGID_1_"  style="overflow:visible;"/>
		</clipPath>
		<rect x="300.05" y="0.5" class="st1" width="837" height="635"/>
	</g>
</g>
<rect x="300.05" y="0.5" class="st2" width="837" height="635"/>
<rect x="409.05" y="48" class="st2" width="648.5" height="517.5"/>
<line class="st3" x1="409.05" y1="565.5" x2="1057.55" y2="565.5"/>
<line class="st3" x1="409.05" y1="48" x2="1057.55" y2="48"/>
<line class="st3" x1="409.05" y1="565.5" x2="409.05" y2="559.02"/>
<line class="st3" x1="501.69" y1="565.5" x2="501.69" y2="559.02"/>
<line class="st3" x1="594.34" y1="565.5" x2="594.34" y2="559.02"/>
<line class="st3" x1="686.98" y1="565.5" x2="686.98" y2="559.02"/>
<line class="st3" x1="779.62" y1="565.5" x2="779.62" y2="559.02"/>
<line class="st3" x1="872.26" y1="565.5" x2="872.26" y2="559.02"/>
<line class="st3" x1="964.91" y1="565.5" x2="964.91" y2="559.02"/>
<line class="st3" x1="1057.55" y1="565.5" x2="1057.55" y2="559.02"/>
<line class="st3" x1="409.05" y1="48" x2="409.05" y2="54.49"/>
<line class="st3" x1="501.69" y1="48" x2="501.69" y2="54.49"/>
<line class="st3" x1="594.34" y1="48" x2="594.34" y2="54.49"/>
<line class="st3" x1="686.98" y1="48" x2="686.98" y2="54.49"/>
<line class="st3" x1="779.62" y1="48" x2="779.62" y2="54.49"/>
<line class="st3" x1="872.26" y1="48" x2="872.26" y2="54.49"/>
<line class="st3" x1="964.91" y1="48" x2="964.91" y2="54.49"/>
<line class="st3" x1="1057.55" y1="48" x2="1057.55" y2="54.49"/>
<text transform="matrix(1 0 0 1 399.0525 584.3)" class="st4 st5 st6">0.8</text>
<text transform="matrix(1 0 0 1 487.6954 584.3)" class="st4 st5 st6">0.85</text>
<text transform="matrix(1 0 0 1 584.3382 584.3)" class="st4 st5 st6">0.9</text>
<text transform="matrix(1 0 0 1 672.9811 584.3)" class="st4 st5 st6">0.95</text>
<text transform="matrix(1 0 0 1 775.6239 584.3)" class="st4 st5 st6">1</text>
<text transform="matrix(1 0 0 1 858.2667 584.3)" class="st4 st5 st6">1.05</text>
<text transform="matrix(1 0 0 1 954.9097 584.3)" class="st4 st5 st6">1.1</text>
<text transform="matrix(1 0 0 1 1043.5524 584.3)" class="st4 st5 st6">1.15</text>
<text transform="matrix(1 0 0 1 691.0525 606.5)" class="st4 st5 st7">volume (m</text>
<text transform="matrix(1 0 0 1 763.0525 599.5)" class="st4 st5 st8">3</text>
<text transform="matrix(1 0 0 1 770.0525 606.5)" class="st4 st5 st7">)</text>
<line class="st3" x1="409.05" y1="565.5" x2="409.05" y2="48"/>
<line class="st3" x1="1057.55" y1="565.5" x2="1057.55" y2="48"/>
<line class="st3" x1="409.05" y1="565.5" x2="415.53" y2="565.5"/>
<line class="st3" x1="409.05" y1="518.45" x2="415.53" y2="518.45"/>
<line class="st3" x1="409.05" y1="471.41" x2="415.53" y2="471.41"/>
<line class="st3" x1="409.05" y1="424.36" x2="415.53" y2="424.36"/>
<line class="st3" x1="409.05" y1="377.32" x2="415.53" y2="377.32"/>
<line class="st3" x1="409.05" y1="330.27" x2="415.53" y2="330.27"/>
<line class="st3" x1="409.05" y1="283.23" x2="415.53" y2="283.23"/>
<line class="st3" x1="409.05" y1="236.18" x2="415.53" y2="236.18"/>
<line class="st3" x1="409.05" y1="189.14" x2="415.53" y2="189.14"/>
<line class="st3" x1="409.05" y1="142.09" x2="415.53" y2="142.09"/>
<line class="st3" x1="409.05" y1="95.05" x2="415.53" y2="95.05"/>
<line class="st3" x1="409.05" y1="48" x2="415.53" y2="48"/>
<line class="st3" x1="1057.55" y1="565.5" x2="1051.06" y2="565.5"/>
<line class="st3" x1="1057.55" y1="518.45" x2="1051.06" y2="518.45"/>
<line class="st3" x1="1057.55" y1="471.41" x2="1051.06" y2="471.41"/>
<line class="st3" x1="1057.55" y1="424.36" x2="1051.06" y2="424.36"/>
<line class="st3" x1="1057.55" y1="377.32" x2="1051.06" y2="377.32"/>
<line class="st3" x1="1057.55" y1="330.27" x2="1051.06" y2="330.27"/>
<line class="st3" x1="1057.55" y1="283.23" x2="1051.06" y2="283.23"/>
<line class="st3" x1="1057.55" y1="236.18" x2="1051.06" y2="236.18"/>
<line class="st3" x1="1057.55" y1="189.14" x2="1051.06" y2="189.14"/>
<line class="st3" x1="1057.55" y1="142.09" x2="1051.06" y2="142.09"/>
<line class="st3" x1="1057.55" y1="95.05" x2="1051.06" y2="95.05"/>
<line class="st3" x1="1057.55" y1="48" x2="1051.06" y2="48"/>
<text transform="matrix(1 0 0 1 396.2525 571)" class="st4 st5 st6">0</text>
<text transform="matrix(1 0 0 1 380.2525 523.9545)" class="st4 st5 st6">100</text>
<text transform="matrix(1 0 0 1 380.2525 476.9091)" class="st4 st5 st6">200</text>
<text transform="matrix(1 0 0 1 380.2525 429.8636)" class="st4 st5 st6">300</text>
<text transform="matrix(1 0 0 1 380.2525 382.8182)" class="st4 st5 st6">400</text>
<text transform="matrix(1 0 0 1 380.2525 335.7727)" class="st4 st5 st6">500</text>
<text transform="matrix(1 0 0 1 380.2525 288.7272)" class="st4 st5 st6">600</text>
<text transform="matrix(1 0 0 1 380.2525 241.6818)" class="st4 st5 st6">700</text>
<text transform="matrix(1 0 0 1 380.2525 194.6364)" class="st4 st5 st6">800</text>
<text transform="matrix(1 0 0 1 380.2525 147.5909)" class="st4 st5 st6">900</text>
<text transform="matrix(1 0 0 1 372.2525 100.5454)" class="st4 st5 st6">1000</text>
<text transform="matrix(1 0 0 1 372.2525 53.5)" class="st4 st5 st6">1100</text>
<text transform="matrix(0 -1 1 0 365.7529 356.2496)" class="st4 st5 st7">p</text>
<text transform="matrix(0 -1 1 0 365.7529 347.6696)" class="st4 st5 st7">ressure (h</text>
<text transform="matrix(0 -1 1 0 365.7529 278.36)" class="st4 st5 st7">P</text>
<text transform="matrix(0 -1 1 0 365.7529 268.1002)" class="st4 st5 st7">a)</text>
<line class="st9" x1="409.05" y1="565.5" x2="1057.55" y2="565.5"/>
<polyline class="st10" points="504.42,95.05 563.16,118.57 627.32,142.09 697.58,165.61 774.94,189.14 860.67,212.66 956.31,236.18 
	"/>
<path class="st11" d="M504.42,91.05c-2.21,0-4,1.79-4,4s1.79,4,4,4c2.21,0,4-1.79,4-4C508.42,92.84,506.63,91.05,504.42,91.05z
	 M504.42,93.05c1.1,0,2,0.9,2,2s-0.9,2-2,2s-2-0.9-2-2C502.42,93.94,503.31,93.05,504.42,93.05z"/>
<path class="st11" d="M563.16,114.57c-2.21,0-4,1.79-4,4s1.79,4,4,4c2.21,0,4-1.79,4-4S565.37,114.57,563.16,114.57z M563.16,116.57
	c1.1,0,2,0.9,2,2s-0.9,2-2,2c-1.1,0-2-0.9-2-2C561.16,117.46,562.06,116.57,563.16,116.57z"/>
<path class="st11" d="M627.32,138.09c-2.21,0-4,1.79-4,4s1.79,4,4,4c2.21,0,4-1.79,4-4C631.32,139.88,629.53,138.09,627.32,138.09z
	 M627.32,140.09c1.1,0,2,0.9,2,2s-0.9,2-2,2c-1.1,0-2-0.9-2-2C625.32,140.99,626.21,140.09,627.32,140.09z"/>
<path class="st11" d="M697.58,161.61c-2.21,0-4,1.79-4,4s1.79,4,4,4c2.21,0,4-1.79,4-4S699.79,161.61,697.58,161.61z M697.58,163.61
	c1.1,0,2,0.9,2,2s-0.9,2-2,2c-1.1,0-2-0.9-2-2S696.48,163.61,697.58,163.61z"/>
<path class="st11" d="M774.94,185.14c-2.21,0-4,1.79-4,4s1.79,4,4,4c2.21,0,4-1.79,4-4S777.15,185.14,774.94,185.14z M774.94,187.14
	c1.1,0,2,0.9,2,2s-0.9,2-2,2c-1.1,0-2-0.9-2-2C772.94,188.03,773.83,187.14,774.94,187.14z"/>
<path class="st11" d="M860.67,208.66c-2.21,0-4,1.79-4,4s1.79,4,4,4s4-1.79,4-4S862.88,208.66,860.67,208.66z M860.67,210.66
	c1.1,0,2,0.9,2,2s-0.9,2-2,2s-2-0.9-2-2C858.67,211.55,859.57,210.66,860.67,210.66z"/>
<path class="st11" d="M956.31,232.18c-2.21,0-4,1.79-4,4s1.79,4,4,4s4-1.79,4-4C960.31,233.97,958.52,232.18,956.31,232.18z
	 M956.31,234.18c1.1,0,2,0.9,2,2s-0.9,2-2,2s-2-0.9-2-2C954.31,235.08,955.2,234.18,956.31,234.18z"/>
<path class="st12" d="M956.31,565.5V224.42h-95.64V565.5H956.31z M860.67,565.5V200.9h-85.05v364.6H860.67z M774.94,565.5V177.38
	h-77.36V565.5H774.94z M697.58,565.5V153.85h-71.62V565.5H697.58z M625.97,565.5V130.33h-61.45V565.5H625.97z M564.52,565.5V106.81
	h-61.45V565.5H564.52z"/>
<rect x="503.07" y="106.81" class="st13" width="61.45" height="458.69"/>
<rect x="564.52" y="130.33" class="st13" width="61.45" height="435.17"/>
<rect x="625.97" y="153.85" class="st13" width="71.62" height="411.65"/>
<rect x="697.58" y="177.38" class="st13" width="77.36" height="388.12"/>
<rect x="774.94" y="200.9" class="st13" width="85.73" height="364.6"/>
<rect x="860.67" y="224.42" class="st13" width="95.64" height="341.08"/>
</svg>
